<?xml version="1.0" standalone="no"?>
<!DOCTYPE svg PUBLIC "-//W3C//DTD SVG 20010904//EN"
 "http://www.w3.org/TR/2001/REC-SVG-20010904/DTD/svg10.dtd">
<svg version="1.0" xmlns="http://www.w3.org/2000/svg"
 width="408.000000pt" height="408.000000pt" viewBox="0 0 408.000000 408.000000"
 preserveAspectRatio="xMidYMid meet">
<metadata>
Created by potrace 1.11, written by Peter Selinger 2001-2013
</metadata>
<g transform="translate(0.000000,408.000000) scale(0.100000,-0.100000)"
fill="#000000" stroke="none">
<path d="M0 2208 l0 -1872 30 33 c24 26 47 37 106 53 57 14 79 16 90 8 8 -7
26 -9 44 -5 17 4 30 2 30 -3 0 -5 11 -12 25 -14 14 -3 25 -1 25 5 0 6 5 6 12
-1 7 -6 31 -14 52 -18 35 -6 38 -5 25 9 -8 8 -18 14 -24 14 -5 -1 -10 5 -10
13 0 8 6 14 14 12 7 -1 19 5 27 15 13 17 13 17 14 -1 0 -15 5 -17 27 -11 23 5
25 4 13 -10 -16 -20 -8 -29 20 -20 17 6 20 12 15 43 -4 30 -4 33 4 14 6 -12
16 -22 23 -22 9 0 9 -3 0 -12 -19 -19 -14 -25 18 -24 24 1 30 5 28 21 -2 11
-11 22 -21 25 -21 6 -22 26 -1 22 8 -2 14 4 14 12 0 8 5 18 12 22 7 5 9 0 6
-14 -7 -26 18 -19 27 8 8 24 40 31 62 14 23 -17 63 -17 87 1 17 13 17 15 3 29
-9 9 -21 16 -27 16 -6 0 -9 4 -6 8 3 5 25 8 48 7 24 -1 60 -2 81 -3 21 -1 36
-6 33 -11 -4 -5 5 -4 19 2 20 10 21 13 7 18 -9 3 -17 12 -17 20 0 8 -13 15
-32 17 -32 3 -32 4 -17 27 18 27 49 43 41 21 -7 -18 25 -29 73 -27 32 2 37 -1
50 -33 15 -40 26 -39 35 5 5 21 10 27 18 20 8 -6 18 -5 31 4 17 13 15 14 -14
13 -17 -1 -34 -7 -37 -14 -8 -22 -22 -6 -16 17 5 17 11 20 36 15 22 -5 34 -1
47 14 12 13 24 18 35 13 15 -5 17 -2 13 15 -5 16 -2 19 11 15 13 -5 14 -3 4 8
-15 15 -17 29 -4 29 5 0 22 5 38 11 22 8 24 12 13 19 -11 7 -8 10 15 11 17 1
37 1 47 0 14 -2 15 4 7 36 -5 21 -9 41 -9 46 0 4 -7 7 -15 7 -9 0 -12 6 -9 15
8 19 -26 19 -78 1 -21 -8 -38 -12 -38 -10 0 6 82 42 111 48 44 10 162 144 219
250 28 53 59 100 68 105 9 5 30 38 47 72 36 76 55 87 55 31 0 -22 6 -45 14
-51 11 -9 13 2 10 66 -2 43 -4 89 -4 102 0 13 -4 39 -9 58 -7 25 -6 31 2 26 7
-4 6 0 -1 10 -8 9 -12 22 -10 28 2 7 14 -2 27 -20 12 -17 54 -56 92 -87 38
-30 77 -63 87 -73 9 -10 42 -32 72 -47 30 -16 57 -32 61 -36 14 -20 115 -39
229 -44 69 -2 136 -8 150 -11 14 -4 48 -7 75 -7 45 -1 50 -3 48 -22 -2 -15 4
-24 18 -27 12 -3 18 -10 15 -15 -5 -8 14 -22 29 -22 2 0 11 24 21 53 30 92 81
191 114 222 l31 30 -10 -26 c-5 -15 -9 -40 -9 -56 1 -16 -7 -45 -17 -66 -9
-20 -15 -44 -11 -52 3 -8 2 -15 -2 -15 -4 0 -7 -33 -8 -72 -1 -40 -3 -86 -6
-103 -3 -16 -3 -20 -1 -7 11 56 44 -8 93 -178 31 -105 48 -139 102 -211 16
-20 28 -46 28 -57 0 -12 5 -22 10 -22 6 0 10 -10 10 -22 1 -27 43 -78 64 -78
8 0 18 -5 22 -12 4 -7 3 -8 -4 -4 -21 13 -13 -19 8 -34 11 -8 20 -19 20 -24 0
-5 13 -21 28 -36 16 -14 26 -32 24 -38 -4 -12 44 -37 66 -33 11 2 16 -13 15
-46 0 -6 6 -9 13 -6 8 3 14 0 14 -7 0 -7 8 -9 19 -5 14 4 21 0 27 -17 7 -22 7
-22 15 -3 13 34 10 40 -23 42 -18 2 -35 8 -37 14 -2 6 -12 18 -22 27 -13 11
-15 19 -8 28 8 9 4 18 -12 31 -59 47 -130 123 -124 132 12 20 -32 99 -64 115
-33 17 -130 133 -149 180 -12 27 -12 28 10 22 13 -4 56 -16 97 -27 41 -11 89
-28 105 -37 17 -9 38 -17 46 -18 20 -2 142 -45 155 -54 6 -4 41 -18 79 -30 87
-28 255 -111 239 -117 -7 -3 -13 -9 -13 -15 0 -6 6 -6 15 2 12 10 22 9 52 -5
21 -10 43 -24 48 -30 6 -7 27 -16 48 -19 32 -6 36 -10 27 -22 -15 -17 -6 -18
22 -3 44 23 117 -36 158 -128 12 -26 28 -93 35 -148 8 -55 20 -135 26 -178
l11 -77 49 0 49 0 0 2040 0 2040 -2040 0 -2040 0 0 -1872z m2347 1650 c-3 -8
-6 -5 -6 6 -1 11 2 17 5 13 3 -3 4 -12 1 -19z m103 -15 c0 -20 -3 -24 -11 -16
-7 7 -9 19 -6 27 10 24 17 19 17 -11z m-280 -7 c0 -11 -19 -15 -25 -6 -3 5 1
10 9 10 9 0 16 -2 16 -4z m45 -6 c3 -6 -1 -7 -9 -4 -18 7 -21 14 -7 14 6 0 13
-4 16 -10z m305 -20 c0 -16 -4 -30 -10 -30 -5 0 -10 14 -10 30 0 17 5 30 10
30 6 0 10 -13 10 -30z m-595 0 c3 -5 2 -10 -4 -10 -5 0 -13 5 -16 10 -3 6 -2
10 4 10 5 0 13 -4 16 -10z m135 -11 c0 -5 -4 -9 -10 -9 -5 0 -10 7 -10 16 0 8
5 12 10 9 6 -3 10 -10 10 -16z m100 3 c0 -17 -25 -32 -54 -32 l-31 1 35 18
c40 22 50 24 50 13z m-172 -32 c12 -11 29 -18 39 -15 10 3 7 0 -5 -7 -20 -10
-25 -9 -33 5 -6 9 -16 17 -24 17 -8 0 -17 5 -20 10 -11 18 21 11 43 -10z m367
10 c3 -5 1 -10 -4 -10 -6 0 -11 5 -11 10 0 6 2 10 4 10 3 0 8 -4 11 -10z m67
-7 c16 -19 20 -53 6 -53 -4 0 -8 9 -8 20 0 11 -4 20 -9 20 -5 0 -11 7 -15 15
-7 20 7 19 26 -2z m-542 -23 c6 -11 8 -20 4 -20 -3 0 -17 9 -31 20 -24 19 -25
20 -5 20 12 0 26 -9 32 -20z m-125 -31 c5 -6 3 -9 -7 -9 -9 0 -18 -4 -20 -9
-1 -5 -11 2 -21 15 l-19 25 29 -7 c15 -4 32 -11 38 -15z m758 -11 c3 -10 4
-18 3 -18 -2 0 -10 8 -19 18 -14 15 -14 19 -3 19 8 0 17 -9 19 -19z m217 0 c0
-31 -13 -87 -19 -84 -10 6 0 96 10 96 5 0 9 -6 9 -12z m-560 -17 c0 -5 -12
-11 -27 -13 -16 -3 -36 -9 -45 -13 -11 -4 -18 -3 -18 3 0 5 17 14 38 20 50 13
52 13 52 3z m275 -63 c12 -29 26 -71 29 -93 4 -28 -2 -18 -20 35 -14 41 -29
79 -35 85 -10 10 -12 25 -3 25 3 0 16 -24 29 -52z m335 1 c0 -10 -4 -21 -10
-24 -5 -3 -10 1 -10 10 0 10 -5 13 -12 9 -8 -5 -9 -2 -5 10 4 10 7 25 7 34 1
15 3 14 15 -2 8 -11 15 -28 15 -37z m-304 -6 c-4 -4 -11 -1 -16 7 -16 25 -11
35 7 17 9 -9 13 -20 9 -24z m-341 17 c3 -6 -1 -7 -9 -4 -18 7 -21 14 -7 14 6
0 13 -4 16 -10z m-401 -19 c3 -4 -6 -6 -19 -3 -14 2 -25 6 -25 8 0 8 39 4 44
-5z m293 3 c-3 -3 -12 -4 -19 -1 -8 3 -5 6 6 6 11 1 17 -2 13 -5z m73 -34 c30
-4 43 -8 28 -9 -28 -1 -41 -21 -14 -21 18 0 63 -36 55 -44 -9 -9 -70 19 -96
43 -12 12 -28 21 -35 21 -7 0 -31 7 -53 15 l-40 15 50 -6 c28 -3 75 -9 105
-14z m-165 -20 c3 -5 -3 -10 -14 -10 -12 0 -21 5 -21 10 0 6 6 10 14 10 8 0
18 -4 21 -10z m925 -44 c0 -2 -8 -10 -17 -17 -16 -13 -17 -12 -4 4 13 16 21
21 21 13z m-140 -20 c0 -3 -4 -8 -10 -11 -5 -3 -10 -1 -10 4 0 6 5 11 10 11 6
0 10 -2 10 -4z m-593 -39 c-7 -19 26 -67 44 -67 10 0 20 -6 23 -12 3 -9 9 -7
20 6 13 16 19 17 28 8 19 -19 31 -14 25 9 -7 27 1 49 20 49 11 0 12 -8 7 -36
-4 -25 -3 -35 4 -31 5 4 13 -4 16 -17 5 -19 11 -24 29 -21 12 3 24 10 26 16 2
6 10 1 18 -11 12 -16 21 -19 48 -14 21 4 43 0 64 -11 17 -8 36 -13 42 -9 6 4
14 2 18 -3 3 -5 30 -14 60 -21 29 -7 66 -21 81 -32 16 -11 32 -20 37 -19 22 4
31 -4 48 -43 10 -24 24 -58 32 -76 9 -20 13 -60 12 -105 -3 -107 -1 -125 19
-145 9 -9 18 -28 20 -42 1 -14 6 -41 11 -60 l9 -35 1 30 c1 26 3 28 12 12 6
-10 9 -26 6 -36 -2 -10 2 -25 9 -35 10 -15 10 -21 -4 -35 -9 -10 -23 -15 -31
-13 -10 4 -12 -2 -6 -28 6 -29 5 -32 -6 -19 -15 16 -34 47 -57 92 -7 15 -16
27 -18 27 -3 0 -3 -4 1 -9 3 -5 1 -12 -4 -15 -5 -4 -12 -2 -16 4 -4 6 -59 10
-137 10 -112 0 -129 -2 -124 -15 4 -12 -1 -15 -26 -13 -18 1 -33 -3 -36 -10
-2 -6 -10 -12 -17 -12 -7 0 -16 -7 -19 -16 -4 -11 -1 -14 12 -12 9 1 22 -1 29
-5 15 -10 109 11 155 34 69 35 128 18 197 -57 22 -24 44 -44 49 -44 11 0 52
-135 52 -173 0 -15 7 -58 17 -94 13 -55 14 -76 5 -122 -41 -207 -41 -207 -69
-269 -18 -42 -30 -114 -14 -92 9 13 11 12 11 -3 0 -28 -19 -57 -37 -57 -12 0
-14 -7 -9 -30 5 -26 3 -30 -12 -28 -11 2 -17 -4 -17 -17 -1 -30 -15 -65 -27
-65 -5 0 -17 -9 -26 -21 -17 -20 -52 -19 -52 2 0 5 -7 9 -15 9 -8 0 -15 6 -15
14 0 8 -5 18 -11 22 -9 5 -10 -1 -5 -20 5 -19 3 -26 -8 -26 -16 0 -26 -21 -26
-55 0 -12 -7 -28 -15 -35 -11 -9 -12 -16 -4 -26 8 -9 5 -18 -10 -33 -12 -12
-21 -26 -21 -33 0 -6 -10 -3 -21 8 -22 19 -22 19 -10 -4 13 -24 4 -54 -9 -32
-10 17 -33 2 -26 -17 3 -8 1 -11 -5 -8 -5 4 -16 2 -22 -4 -8 -6 -76 -9 -183
-8 -158 3 -173 5 -208 26 -22 14 -35 29 -32 37 3 7 1 16 -5 20 -6 3 -14 17
-20 31 -5 13 -13 21 -19 18 -5 -3 -10 0 -10 7 0 9 -3 9 -10 -2 -8 -13 -10 -12
-10 3 0 14 -7 18 -27 17 -42 -3 -49 -1 -33 10 13 8 11 11 -7 16 -13 4 -23 10
-23 15 0 5 -9 9 -19 9 -11 0 -21 3 -23 8 -2 4 -16 18 -32 32 -21 18 -28 20
-23 8 4 -12 2 -15 -9 -11 -7 3 -14 11 -14 19 0 8 -4 14 -10 14 -5 0 -10 7 -10
15 0 8 -4 15 -8 15 -19 0 -59 113 -70 196 -9 71 -6 91 16 97 12 3 10 5 -5 6
-25 1 -32 21 -8 21 19 0 20 -5 -11 71 -50 127 -56 151 -52 216 2 35 0 63 -4
63 -4 0 -8 8 -8 18 0 10 -3 22 -7 26 -13 12 -12 40 1 56 20 22 28 57 16 65 -6
3 -8 10 -5 15 3 4 -2 11 -11 14 -14 5 -14 9 -3 22 10 13 10 19 -1 37 -8 13
-15 57 -17 107 -1 47 -3 86 -3 88 -1 12 4 17 12 14 6 -2 8 8 6 22 -3 14 -1 23
3 20 5 -3 9 3 9 13 0 11 6 25 13 32 10 11 8 12 -10 6 -13 -3 -23 -2 -23 3 0 5
-3 24 -6 41 -4 17 -3 31 2 31 5 0 10 -12 10 -26 2 -30 9 -38 24 -29 7 4 9 19
5 36 -4 17 -2 36 4 43 6 8 11 27 10 42 -3 38 11 97 24 105 5 4 10 20 11 37 1
21 5 28 15 24 9 -3 12 -1 7 6 -4 7 -2 12 3 12 13 0 51 32 51 42 0 5 -9 8 -19
8 -11 0 -23 5 -27 12 -5 7 -2 9 9 5 8 -3 21 1 28 9 22 26 51 38 60 23 6 -10
11 -10 25 2 17 14 33 19 169 55 85 22 81 20 64 41 -12 16 -12 17 1 6 13 -10
22 -7 48 13 18 14 32 32 32 40 0 8 5 12 11 9 5 -4 8 -12 6 -18z m-547 4 c0 -6
-4 -13 -10 -16 -5 -3 -10 1 -10 9 0 9 5 16 10 16 6 0 10 -4 10 -9z m-215 -980
c3 -10 14 -21 25 -24 21 -5 60 -63 60 -88 0 -9 7 -19 15 -23 8 -3 15 -12 15
-21 0 -8 4 -23 9 -33 5 -9 17 -43 27 -75 9 -32 28 -69 41 -83 13 -14 23 -32
23 -40 0 -8 4 -13 9 -10 5 4 7 -3 4 -14 -3 -11 -9 -23 -14 -25 -4 -3 -6 -12
-3 -19 3 -8 -9 -20 -31 -31 -71 -33 -143 3 -185 92 -51 106 -73 295 -45 369
17 46 39 57 50 25z m1781 -67 c12 -63 -2 -294 -21 -346 -18 -52 -64 -98 -98
-98 -11 0 -40 9 -63 21 -40 19 -43 23 -37 52 3 18 11 41 18 53 8 11 26 61 40
110 15 49 33 96 39 104 6 8 19 32 29 52 12 27 21 36 32 32 11 -5 19 3 28 25
15 41 25 39 33 -5z m-269 -561 c-3 -10 -5 -4 -5 12 0 17 2 24 5 18 2 -7 2 -21
0 -30z m-1704 -1126 c3 -8 -3 -14 -15 -14 -16 -2 -17 1 -8 13 15 17 17 17 23
1z m-58 -27 c3 -6 -1 -7 -9 -4 -18 7 -21 14 -7 14 6 0 13 -4 16 -10z m-265
-82 c0 -12 -3 -18 -7 -14 -10 10 -11 46 -1 40 4 -3 8 -15 8 -26z m-130 -8 c0
-5 -2 -10 -4 -10 -3 0 -8 5 -11 10 -3 6 -1 10 4 10 6 0 11 -4 11 -10z m50 -80
c0 -5 -2 -10 -4 -10 -3 0 -8 5 -11 10 -3 6 -1 10 4 10 6 0 11 -4 11 -10z
m2380 -100 c0 -5 -4 -10 -10 -10 -5 0 -10 5 -10 10 0 6 5 10 10 10 6 0 10 -4
10 -10z"/>
<path d="M2811 3084 c0 -11 3 -14 6 -6 3 7 2 16 -1 19 -3 4 -6 -2 -5 -13z"/>
<path d="M1718 2710 c-38 -22 -41 -23 -34 -5 6 15 0 13 -22 -8 -27 -26 -39
-57 -48 -124 -1 -13 2 -23 7 -23 5 0 9 4 9 9 0 19 83 90 135 116 64 33 106 36
135 10 13 -12 42 -19 91 -23 75 -5 91 2 82 38 -4 15 -12 17 -41 13 -25 -4 -33
-3 -28 5 9 14 2 15 -137 16 -97 1 -111 -1 -149 -24z m233 -11 c-17 -16 -26
-18 -34 -10 -8 8 -7 11 6 11 9 0 17 5 17 10 0 6 8 10 17 10 14 0 13 -4 -6 -21z"/>
<path d="M1915 2605 c-48 -11 -95 -30 -95 -38 0 -6 -3 -7 -7 -4 -3 4 -15 0
-25 -10 -23 -20 -24 -48 -2 -39 9 3 30 6 47 6 29 0 30 1 11 15 -16 13 -17 16
-4 25 21 14 35 7 34 -19 0 -13 6 -21 15 -22 9 0 32 -2 51 -4 38 -3 50 7 50 43
0 13 6 22 15 22 8 0 15 4 15 9 0 12 -74 20 -79 8 -2 -6 -6 -6 -10 0 -3 6 -10
9 -16 8z m36 -50 c-1 -15 -24 -12 -29 3 -3 9 2 13 12 10 10 -1 17 -7 17 -13z"/>
<path d="M2519 2587 c0 -1 -2 -13 -3 -27 -5 -42 13 -67 53 -74 42 -7 61 11 61
57 l0 28 30 -21 c17 -12 30 -28 30 -36 0 -8 4 -13 9 -10 5 4 11 1 13 -6 3 -7
12 -9 22 -5 25 10 9 28 -59 66 -40 23 -65 30 -104 29 -28 0 -51 -1 -52 -1z
m56 -57 c-5 -8 -11 -8 -17 -2 -6 6 -7 16 -3 22 5 8 11 8 17 2 6 -6 7 -16 3
-22z"/>
<path d="M2136 2155 c10 -8 24 -14 29 -14 6 0 1 6 -9 14 -11 8 -24 15 -30 15
-5 0 -1 -7 10 -15z"/>
<path d="M2348 2138 c9 -9 15 -9 24 0 9 9 7 12 -12 12 -19 0 -21 -3 -12 -12z"/>
<path d="M1940 1954 c0 -6 26 -11 65 -11 44 0 65 3 65 11 0 9 -21 12 -65 12
-39 -1 -65 -5 -65 -12z"/>
<path d="M2418 1943 c6 -2 18 -2 25 0 6 3 1 5 -13 5 -14 0 -19 -2 -12 -5z"/>
<path d="M2492 1943 c-19 -4 -20 -6 -8 -19 8 -8 21 -14 28 -14 7 -1 0 -7 -17
-15 -27 -12 -28 -13 -7 -14 13 -1 20 -5 17 -11 -10 -17 16 -11 51 11 43 26 43
36 -1 45 -19 3 -32 10 -29 15 3 5 2 8 -3 8 -4 -1 -18 -4 -31 -6z"/>
<path d="M2035 1910 c3 -5 8 -10 11 -10 2 0 4 5 4 10 0 6 -5 10 -11 10 -5 0
-7 -4 -4 -10z"/>
<path d="M1950 1570 c0 -5 5 -10 10 -10 6 0 10 5 10 10 0 6 -4 10 -10 10 -5 0
-10 -4 -10 -10z"/>
<path d="M2050 1420 c0 -5 7 -10 16 -10 8 0 12 5 9 10 -3 6 -10 10 -16 10 -5
0 -9 -4 -9 -10z"/>
<path d="M2672 1070 c0 -14 2 -19 5 -12 2 6 2 18 0 25 -3 6 -5 1 -5 -13z"/>
<path d="M2646 825 c-3 -9 -6 -24 -5 -33 0 -9 5 -4 10 12 9 32 6 48 -5 21z"/>
<path d="M1310 791 c0 -5 7 -12 16 -15 8 -3 13 -10 9 -16 -3 -5 -1 -17 4 -27
6 -10 15 -34 21 -53 10 -34 10 -34 5 9 -6 49 -32 111 -46 111 -5 0 -9 -4 -9
-9z"/>
<path d="M2618 669 c-1 -28 0 -53 5 -56 4 -2 7 21 7 51 0 70 -7 73 -12 5z"/>
<path d="M3356 705 c10 -8 23 -15 28 -15 6 0 1 7 -10 15 -10 8 -23 15 -28 15
-6 0 -1 -7 10 -15z"/>
<path d="M960 620 c0 -5 11 -10 25 -10 14 0 25 5 25 10 0 6 -11 10 -25 10 -14
0 -25 -4 -25 -10z"/>
<path d="M1410 617 c0 -7 -10 -24 -21 -36 -18 -19 -19 -25 -8 -32 8 -5 19 -9
24 -10 29 -3 95 -7 133 -8 35 -1 42 -4 42 -21 0 -11 5 -20 10 -20 6 0 10 9 10
20 0 13 5 18 15 14 11 -5 15 1 15 20 0 18 6 26 18 27 17 1 -202 58 -225 59 -7
0 -13 -6 -13 -13z"/>
<path d="M1090 590 c0 -5 7 -10 15 -10 8 0 15 5 15 10 0 6 -7 10 -15 10 -8 0
-15 -4 -15 -10z"/>
<path d="M1000 581 c0 -6 4 -13 10 -16 6 -3 7 1 4 9 -7 18 -14 21 -14 7z"/>
<path d="M2700 560 c0 -38 -28 -79 -49 -73 -11 3 -28 -4 -40 -16 -24 -24 -43
-28 -35 -7 4 11 -5 14 -46 12 -57 -3 -65 16 -9 24 l34 5 -51 21 -52 22 -23
-32 c-13 -17 -23 -33 -23 -36 -1 -3 -11 -14 -24 -25 l-24 -21 44 -52 c23 -30
62 -77 86 -105 73 -88 83 -114 71 -187 -5 -35 -8 -69 -5 -77 4 -9 25 -13 71
-13 l66 0 -7 35 c-4 23 -2 35 5 35 6 0 11 -5 11 -11 0 -5 5 -7 12 -3 8 5 9 -2
5 -24 -6 -31 -5 -32 28 -32 40 0 39 -4 20 75 -19 82 -32 305 -17 305 6 0 18
13 27 30 13 24 13 38 4 75 -17 67 -79 126 -79 75z m-20 -310 c0 -5 -5 -10 -11
-10 -5 0 -7 5 -4 10 3 6 8 10 11 10 2 0 4 -4 4 -10z m17 -24 c-3 -7 1 -23 9
-35 13 -18 13 -21 1 -21 -8 0 -17 9 -20 21 -6 21 0 49 10 49 3 0 3 -6 0 -14z
m-60 -90 c-16 -12 -15 -14 15 -27 17 -7 27 -14 21 -16 -5 -2 -29 5 -52 16 -39
17 -41 20 -25 30 11 6 28 10 39 10 19 0 19 0 2 -13z"/>
<path d="M808 563 c6 -2 18 -2 25 0 6 3 1 5 -13 5 -14 0 -19 -2 -12 -5z"/>
<path d="M880 556 c0 -15 18 -31 26 -23 7 7 -7 37 -17 37 -5 0 -9 -6 -9 -14z"/>
<path d="M3765 520 c-3 -5 -1 -10 4 -10 6 0 11 5 11 10 0 6 -2 10 -4 10 -3 0
-8 -4 -11 -10z"/>
<path d="M3205 400 c3 -5 8 -10 11 -10 2 0 4 5 4 10 0 6 -5 10 -11 10 -5 0 -7
-4 -4 -10z"/>
<path d="M445 371 c-3 -5 -1 -12 5 -16 5 -3 10 1 10 9 0 18 -6 21 -15 7z"/>
<path d="M3135 350 c-3 -5 -1 -10 4 -10 6 0 11 5 11 10 0 6 -2 10 -4 10 -3 0
-8 -4 -11 -10z"/>
<path d="M3276 273 c7 -37 33 -88 41 -80 6 7 -31 117 -40 117 -4 0 -5 -17 -1
-37z"/>
</g>
</svg>
